<svg width="664" height="171" viewBox="0 0 664 171" fill="none" xmlns="http://www.w3.org/2000/svg">
<g clip-path="url(#clip0)">
<path d="M286.34 75.34H286.39V125.34H274.12V76.91C274.124 73.6949 273.253 70.5392 271.599 67.782C269.946 65.0247 267.572 62.7699 264.734 61.2597C261.895 59.7495 258.699 59.041 255.489 59.2102C252.278 59.3794 249.174 60.4199 246.51 62.22C245.03 58.4144 242.984 54.8542 240.44 51.66C244.856 48.8882 249.917 47.3149 255.126 47.0953C260.335 46.8757 265.511 48.0173 270.144 50.4076C274.778 52.7979 278.708 56.3544 281.548 60.7265C284.388 65.0985 286.04 70.1352 286.34 75.34ZM208.68 47C201.02 47.003 193.651 49.9361 188.084 55.1981C182.517 60.46 179.174 67.6521 178.74 75.3H178.69V125.3H191V76.91C191 72.2104 192.867 67.7032 196.19 64.3801C199.513 61.0569 204.02 59.19 208.72 59.19C213.42 59.19 217.927 61.0569 221.25 64.3801C224.573 67.7032 226.44 72.2104 226.44 76.91V125.38H238.72V75.38H238.67C238.255 67.7093 234.914 60.49 229.334 55.2099C223.754 49.9299 216.362 46.9914 208.68 47ZM435.58 49.1V93.32C435.639 95.9728 435.168 98.6108 434.194 101.079C433.22 103.547 431.763 105.796 429.907 107.693C428.052 109.59 425.837 111.098 423.391 112.127C420.945 113.156 418.319 113.686 415.665 113.686C413.012 113.686 410.385 113.156 407.939 112.127C405.493 111.098 403.278 109.59 401.423 107.693C399.567 105.796 398.11 103.547 397.136 101.079C396.162 98.6108 395.691 95.9728 395.75 93.32V49.14H383.6V94.89C383.985 103.125 387.527 110.894 393.491 116.586C399.455 122.277 407.381 125.452 415.625 125.452C423.869 125.452 431.795 122.277 437.759 116.586C443.723 110.894 447.265 103.125 447.65 94.89V49.14L435.58 49.1ZM39.17 47C33.1393 47.0119 27.1936 48.4221 21.8 51.12V65.54C26.5091 61.5906 32.4247 59.3661 38.5692 59.2339C44.7138 59.1017 50.7195 61.0697 55.5941 64.8129C60.4687 68.5561 63.9204 73.8503 65.3788 79.8207C66.8372 85.7911 66.215 92.0805 63.6151 97.6494C61.0152 103.218 56.5931 107.734 51.0796 110.449C45.5661 113.165 39.2911 113.918 33.2915 112.584C27.292 111.251 21.9269 107.91 18.0829 103.115C14.2389 98.3194 12.146 92.356 12.15 86.21V0H0V87.78C0.315554 95.4506 2.87825 102.859 7.3696 109.086C11.861 115.312 18.0829 120.081 25.2623 122.8C32.4417 125.52 40.2619 126.069 47.751 124.381C55.2402 122.693 62.0682 118.841 67.3863 113.304C72.7044 107.767 76.2783 100.79 77.6638 93.2388C79.0492 85.6877 78.1852 77.896 75.179 70.8319C72.1728 63.7679 67.1571 57.7429 60.7551 53.5059C54.3531 49.2688 46.8471 47.0065 39.17 47ZM336.23 47C330.214 47.0097 324.282 48.413 318.9 51.1V65.5C323.615 61.5614 329.532 59.3484 335.674 59.2264C341.816 59.1045 347.816 61.0809 352.684 64.8292C357.551 68.5776 360.995 73.8739 362.446 79.8435C363.897 85.8131 363.269 92.0991 360.665 97.6636C358.062 103.228 353.639 107.738 348.126 110.45C342.613 113.161 336.34 113.911 330.344 112.576C324.347 111.241 318.985 107.901 315.142 103.108C311.3 98.3141 309.207 92.3535 309.21 86.21V0H297.06V87.78C297.376 95.4506 299.938 102.859 304.43 109.086C308.921 115.312 315.143 120.081 322.322 122.8C329.502 125.52 337.322 126.069 344.811 124.381C352.3 122.693 359.128 118.841 364.446 113.304C369.764 107.767 373.338 100.79 374.724 93.2388C376.109 85.6877 375.245 77.896 372.239 70.8319C369.233 63.7679 364.217 57.7429 357.815 53.5059C351.413 49.2688 343.907 47.0065 336.23 47ZM125.71 47C119.805 46.996 113.976 48.3272 108.658 50.8939C103.34 53.4606 98.6709 57.1964 95.0004 61.822C91.3299 66.4475 88.7527 71.8431 87.4615 77.6052C86.1704 83.3672 86.1987 89.3466 87.5443 95.0962C88.89 100.846 91.5181 106.217 95.2323 110.807C98.9464 115.398 103.65 119.089 108.992 121.606C114.334 124.122 120.176 125.398 126.081 125.338C131.985 125.278 137.8 123.884 143.09 121.26V106.89C138.383 110.841 132.469 113.069 126.325 113.204C120.18 113.34 114.174 111.375 109.297 107.634C104.421 103.894 100.966 98.6017 99.5048 92.6323C98.0431 86.6629 98.6616 80.3735 101.258 74.8032C103.855 69.233 108.274 64.7152 113.786 61.9964C119.297 59.2777 125.572 58.5206 131.572 59.8503C137.572 61.18 142.939 64.5169 146.786 69.3097C150.633 74.1025 152.73 80.0643 152.73 86.21C152.735 86.2899 152.735 86.3701 152.73 86.45V125.38H164.88V84.65C164.475 74.5314 160.171 64.9617 152.87 57.9441C145.569 50.9264 135.837 47.0048 125.71 47Z" fill="white"/>
<path d="M621.15 43.9H621C621 43.9 617.9 43.98 616.59 44.1C605.67 45.1339 595.567 50.3323 588.378 58.6168C581.189 66.9012 577.465 77.6355 577.98 88.5923C578.494 99.5491 583.208 109.887 591.142 117.461C599.076 125.035 609.621 129.264 620.59 129.27H621.21C632.427 129.13 643.135 124.573 651.012 116.586C658.888 108.599 663.297 97.8274 663.28 86.61C663.242 75.3942 658.81 64.64 650.933 56.6551C643.057 48.6702 632.364 44.091 621.15 43.9ZM624.53 109.74C623.28 109.943 622.016 110.044 620.75 110.04C614.751 110.073 608.968 107.807 604.588 103.709C600.207 99.6101 597.563 93.9901 597.197 88.0026C596.831 82.0151 598.771 76.1147 602.619 71.5132C606.468 66.9118 611.932 63.9585 617.89 63.26C618.62 63.17 620.59 63.08 620.59 63.08C626.483 63.0761 632.162 65.2864 636.503 69.2729C640.843 73.2594 643.527 78.7309 644.022 84.6031C644.518 90.4753 642.789 96.3194 639.179 100.977C635.569 105.635 630.34 108.766 624.53 109.75V109.74Z" fill="white"/>
<path d="M568.12 85.88C568.15 80.3189 567.07 74.8078 564.942 69.6697C562.814 64.5317 559.682 59.8701 555.729 55.9583C551.777 52.0465 547.083 48.9632 541.923 46.8891C536.763 44.8151 531.241 43.792 525.68 43.88H525.45C524.25 43.88 523.06 43.94 521.88 44.06C503.15 45.77 487.18 59.79 483.73 78.52C482.14 86.8536 483.071 95.4722 486.404 103.274C489.736 111.076 495.32 117.707 502.44 122.32C503.91 123.277 505.44 124.139 507.02 124.9C511.994 127.356 517.405 128.806 522.941 129.167C528.477 129.527 534.03 128.791 539.28 127V105.72C536.349 107.811 532.975 109.201 529.421 109.781C525.867 110.361 522.227 110.116 518.783 109.065C515.338 108.014 512.182 106.185 509.557 103.719C506.932 101.254 504.909 98.2181 503.644 94.8463C502.38 91.4745 501.907 87.8571 502.263 84.2736C502.62 80.6901 503.795 77.2365 505.699 74.1796C507.603 71.1228 510.184 68.5446 513.242 66.6442C516.301 64.7439 519.756 63.5723 523.34 63.22C523.49 63.22 523.63 63.22 523.78 63.16C524.4 63.16 525.04 63.07 525.68 63.07C531.912 63.0779 537.886 65.5577 542.292 69.9653C546.698 74.3728 549.175 80.3481 549.18 86.58V127.35C549.189 132.788 547.31 138.061 543.862 142.267C540.415 146.473 535.614 149.351 530.28 150.41C528.826 150.708 527.345 150.862 525.86 150.87C525.35 150.87 524.86 150.87 524.43 150.82C503.89 150.36 501.89 140.27 501.89 132.43V132H483V132.16C483 155.16 499.34 169.69 525.65 170.01H526.19C527.789 169.999 529.385 169.889 530.97 169.68C538.989 168.71 546.565 165.475 552.81 160.353C559.055 155.23 563.71 148.434 566.23 140.76C567.504 136.665 568.141 132.398 568.12 128.11L568.38 103.48V99.83L568.12 85.88Z" fill="white"/>
</g>
<defs>
<clipPath id="clip0">
<rect width="663.28" height="170.05" fill="white"/>
</clipPath>
</defs>
</svg>
