<svg xmlns="http://www.w3.org/2000/svg" viewBox="0 0 663.28 170.05"><defs><style>.cls-1{fill:#1e1446;}.cls-2{fill:#42e190;}</style></defs><g id="Layer_2" data-name="Layer 2"><g id="Layer_1-2" data-name="Layer 1"><path class="cls-1" d="M286.34,75.34h.05v50H274.12V76.91a17.7,17.7,0,0,0-27.61-14.69,40.54,40.54,0,0,0-6.07-10.56,30,30,0,0,1,45.9,23.68ZM208.68,47a30,30,0,0,0-29.94,28.3h-.05v50H191V76.91a17.72,17.72,0,0,1,35.44,0v48.47h12.28v-50h-.05A30,30,0,0,0,208.68,47Zm226.9,2.1V93.32a19.92,19.92,0,1,1-39.83,0V49.14H383.6V94.89h0a32.06,32.06,0,0,0,64.05,0h0V49.14ZM39.17,47A39,39,0,0,0,21.8,51.12V65.54a27,27,0,1,1-9.65,20.67V0H0V87.78H0A39.17,39.17,0,1,0,39.17,47Zm297.06,0A38.94,38.94,0,0,0,318.9,51.1V65.5a27,27,0,1,1-9.69,20.71V0H297.06V87.78h0A39.17,39.17,0,1,0,336.23,47ZM125.71,47a39.17,39.17,0,1,0,17.38,74.26V106.89a27,27,0,1,1,9.64-20.68,1.93,1.93,0,0,1,0,.24v38.93h12.15V84.65h0A39.22,39.22,0,0,0,125.71,47Z"/><path class="cls-2" d="M621.15,43.9H621s-3.1.08-4.41.2h0a42.68,42.68,0,0,0,4,85.17l.62,0h0a42.6,42.6,0,0,0,42.07-42.66A42.86,42.86,0,0,0,621.15,43.9Zm3.38,65.84a23.11,23.11,0,0,1-3.78.3h0a23.47,23.47,0,0,1-2.86-46.78h0c.73-.09,2.7-.18,2.7-.18a23.5,23.5,0,0,1,3.94,46.67Z"/><path class="cls-2" d="M568.12,85.88a41.78,41.78,0,0,0-42.44-42h-.23q-1.8,0-3.57.18c-18.73,1.71-34.7,15.73-38.15,34.46a42.66,42.66,0,0,0,18.71,43.8,41.08,41.08,0,0,0,4.58,2.58A42.14,42.14,0,0,0,539.28,127V105.72a23.49,23.49,0,1,1-15.94-42.5c.15,0,.29,0,.44-.06.62,0,1.26-.09,1.9-.09a23.53,23.53,0,0,1,23.5,23.51v40.77a23.47,23.47,0,0,1-18.9,23.06,22.58,22.58,0,0,1-4.42.46c-.51,0-1,0-1.43-.05-20.54-.46-22.54-10.55-22.54-18.39V132H483v.16c0,23,16.34,37.53,42.65,37.85h.54a38.56,38.56,0,0,0,4.78-.33,42.48,42.48,0,0,0,35.26-28.92,41.92,41.92,0,0,0,1.89-12.65l.26-24.63,0-3.65Z"/></g></g></svg>